REM DIRINDEX 1\2\6,1\2\7,1\2\8,1\3\9,1\3\10,1\3\11,1\4\12,1\4\13,1\4\14,1\5\15,1\5\16,1\5\17,1\5\18
REM DIRNAME folder01,folder02,folder03,folder04,folder05,folder06,folder07,folder08,folder09,folder10,folder11,folder12,folder13,folder14,folder15,folder16,folder17,folder18
TITLE ""
FILE "2Q_k_051-060.mp3" MP3
  TRACK 01 AUDIO
    TITLE "9:cjc019_1781"
    INDEX 01 00:00:00
  TRACK 02 AUDIO
    TITLE "0:"
    INDEX 01 00:01:28
  TRACK 03 AUDIO
    TITLE "10:cjc019_1782"
    INDEX 01 00:02:14
  TRACK 04 AUDIO
    TITLE "0:"
    INDEX 01 00:03:72
  TRACK 05 AUDIO
    TITLE "11:cjc019_1783"
    INDEX 01 00:04:58
  TRACK 06 AUDIO
    TITLE "11:cjc019_1784"
    INDEX 01 00:06:55
  TRACK 07 AUDIO
    TITLE "0:"
    INDEX 01 00:09:20
  TRACK 08 AUDIO
    TITLE "9:cjc019_1785"
    INDEX 01 00:10:04
  TRACK 09 AUDIO
    TITLE "0:"
    INDEX 01 00:12:09
  TRACK 10 AUDIO
    TITLE "10:cjc019_1786"
    INDEX 01 00:12:67
  TRACK 11 AUDIO
    TITLE "0:"
    INDEX 01 00:14:72
  TRACK 12 AUDIO
    TITLE "11:cjc019_1787"
    INDEX 01 00:15:48
  TRACK 13 AUDIO
    TITLE "11:cjc019_1788"
    INDEX 01 00:20:02
  TRACK 14 AUDIO
    TITLE "0:"
    INDEX 01 00:22:54
  TRACK 15 AUDIO
    TITLE "9:cjc019_1789"
    INDEX 01 00:23:36
  TRACK 16 AUDIO
    TITLE "0:"
    INDEX 01 00:25:60
  TRACK 17 AUDIO
    TITLE "10:cjc019_1790"
    INDEX 01 00:26:38
  TRACK 18 AUDIO
    TITLE "0:"
    INDEX 01 00:28:51
  TRACK 19 AUDIO
    TITLE "11:cjc019_1791"
    INDEX 01 00:29:33
  TRACK 20 AUDIO
    TITLE "11:cjc019_1792"
    INDEX 01 00:33:05
  TRACK 21 AUDIO
    TITLE "0:"
    INDEX 01 00:36:17
  TRACK 22 AUDIO
    TITLE "9:cjc019_1793"
    INDEX 01 00:37:01
  TRACK 23 AUDIO
    TITLE "0:"
    INDEX 01 00:39:39
  TRACK 24 AUDIO
    TITLE "10:cjc019_1794"
    INDEX 01 00:40:21
  TRACK 25 AUDIO
    TITLE "0:"
    INDEX 01 00:42:00
  TRACK 26 AUDIO
    TITLE "11:cjc019_1795"
    INDEX 01 00:42:53
  TRACK 27 AUDIO
    TITLE "11:cjc019_1796"
    INDEX 01 00:47:44
  TRACK 28 AUDIO
    TITLE "0:"
    INDEX 01 00:51:03
  TRACK 29 AUDIO
    TITLE "9:cjc019_1797"
    INDEX 01 00:51:56
  TRACK 30 AUDIO
    TITLE "0:"
    INDEX 01 00:53:68
  TRACK 31 AUDIO
    TITLE "10:cjc019_1798"
    INDEX 01 00:54:44
  TRACK 32 AUDIO
    TITLE "0:"
    INDEX 01 00:56:25
  TRACK 33 AUDIO
    TITLE "11:cjc019_1799"
    INDEX 01 00:57:03
  TRACK 34 AUDIO
    TITLE "11:cjc019_1800"
    INDEX 01 01:01:23
  TRACK 35 AUDIO
    TITLE "0:"
    INDEX 01 01:05:21
  TRACK 36 AUDIO
    TITLE "9:cjc019_1801"
    INDEX 01 01:05:71
  TRACK 37 AUDIO
    TITLE "0:"
    INDEX 01 01:07:64
  TRACK 38 AUDIO
    TITLE "10:cjc019_1802"
    INDEX 01 01:08:46
  TRACK 39 AUDIO
    TITLE "0:"
    INDEX 01 01:10:33
  TRACK 40 AUDIO
    TITLE "11:cjc019_1803"
    INDEX 01 01:11:07
  TRACK 41 AUDIO
    TITLE "11:cjc019_1804"
    INDEX 01 01:14:49
  TRACK 42 AUDIO
    TITLE "0:"
    INDEX 01 01:18:45
  TRACK 43 AUDIO
    TITLE "9:cjc019_1805"
    INDEX 01 01:19:25
  TRACK 44 AUDIO
    TITLE "0:"
    INDEX 01 01:22:21
  TRACK 45 AUDIO
    TITLE "10:cjc019_1806"
    INDEX 01 01:22:72
  TRACK 46 AUDIO
    TITLE "0:"
    INDEX 01 01:26:50
  TRACK 47 AUDIO
    TITLE "11:cjc019_1807"
    INDEX 01 01:27:30
  TRACK 48 AUDIO
    TITLE "11:cjc019_1808"
    INDEX 01 01:30:52
  TRACK 49 AUDIO
    TITLE "0:"
    INDEX 01 01:33:48
  TRACK 50 AUDIO
    TITLE "9:cjc019_1809"
    INDEX 01 01:34:30
  TRACK 51 AUDIO
    TITLE "0:"
    INDEX 01 01:36:01
  TRACK 52 AUDIO
    TITLE "10:cjc019_1810"
    INDEX 01 01:36:58
  TRACK 53 AUDIO
    TITLE "0:"
    INDEX 01 01:38:12
  TRACK 54 AUDIO
    TITLE "11:cjc019_1811"
    INDEX 01 01:38:65
  TRACK 55 AUDIO
    TITLE "11:cjc019_1812"
    INDEX 01 01:42:55
  TRACK 56 AUDIO
    TITLE "0:"
    INDEX 01 01:47:37
  TRACK 57 AUDIO
    TITLE "9:cjc019_1813"
    INDEX 01 01:48:14
  TRACK 58 AUDIO
    TITLE "0:"
    INDEX 01 01:49:69
  TRACK 59 AUDIO
    TITLE "10:cjc019_1814"
    INDEX 01 01:50:49
  TRACK 60 AUDIO
    TITLE "0:"
    INDEX 01 01:52:18
  TRACK 61 AUDIO
    TITLE "11:cjc019_1815"
    INDEX 01 01:53:00
  TRACK 62 AUDIO
    TITLE "11:cjc019_1816"
    INDEX 01 01:54:48
  TRACK 63 AUDIO
    TITLE "0:"
    INDEX 01 01:59:24
  TRACK 64 AUDIO
    TITLE "9:cjc019_1817"
    INDEX 01 02:00:02
  TRACK 65 AUDIO
    TITLE "0:"
    INDEX 01 02:01:60
  TRACK 66 AUDIO
    TITLE "10:cjc019_1818"
    INDEX 01 02:02:40
  TRACK 67 AUDIO
    TITLE "0:"
    INDEX 01 02:04:53
  TRACK 68 AUDIO
    TITLE "11:cjc019_1819"
    INDEX 01 02:05:27
  TRACK 69 AUDIO
    TITLE "11:cjc019_1820"
    INDEX 01 02:07:61
  TRACK 70 AUDIO
    TITLE "0:"
    INDEX 01 02:09:54
